<svg width="240" height="240" viewBox="0 0 240 240" fill="none" xmlns="http://www.w3.org/2000/svg">
<g clip-path="url(#clip0_765_300)">
<mask id="mask0_765_300" style="mask-type:luminance" maskUnits="userSpaceOnUse" x="3" y="135" width="234" height="20">
<path d="M236.267 135.689H3.97803V154.667H236.267V135.689Z" fill="white"/>
</mask>
<g mask="url(#mask0_765_300)">
<path d="M104.333 148.022V144.489C104.333 139.067 99.8667 135.689 92.7556 135.689C89.2223 135.689 85.3112 136.667 82.5778 138.222L83.6445 142.245C85.9556 141.178 89.4223 140.356 92.4445 140.356C96.3112 140.356 98.4667 141.733 98.4667 144.178V145.622C95.2667 144.022 93.2 143.489 89.6889 143.489C84.8667 143.489 81.8223 145.645 81.8223 149.111C81.8223 152.533 84.9334 154.645 89.9112 154.645C93.7112 154.645 96.7778 153.578 98.5334 151.689H99.9334C100.2 153.556 101.156 154.645 103.844 154.645C104.756 154.645 105.511 154.533 106.267 154.311V149.756C104.933 149.756 104.333 149.222 104.333 148.022ZM98.4889 149.689C97.1556 150.378 94.7334 150.822 92.1556 150.822C89.3112 150.822 87.8223 149.711 87.8223 148.622C87.8223 147.556 89.2223 146.533 92.0667 146.533C94.5778 146.533 97.0445 146.956 98.4889 147.711V149.689Z" fill="#1568F6"/>
</g>
<mask id="mask1_765_300" style="mask-type:luminance" maskUnits="userSpaceOnUse" x="3" y="135" width="234" height="20">
<path d="M236.267 135.689H3.97803V154.667H236.267V135.689Z" fill="white"/>
</mask>
<g mask="url(#mask1_765_300)">
<path d="M54.7998 145.244C54.7998 151.022 59.5776 154.644 67.1776 154.644C71.622 154.644 76.0887 153.422 78.0665 151.689V143.867H67.022V146.911H72.3998V149.155C71.1776 149.644 69.1776 150 67.1554 150C63.022 150 60.7331 147.733 60.7331 145.178C60.7331 142.333 63.5776 140.355 67.5998 140.355C70.7554 140.355 74.3554 140.889 76.9331 141.733L78.0443 137.6C75.0443 136.422 70.822 135.711 67.1554 135.711C59.5998 135.689 54.7998 139.355 54.7998 145.244Z" fill="#1568F6"/>
</g>
<mask id="mask2_765_300" style="mask-type:luminance" maskUnits="userSpaceOnUse" x="3" y="135" width="234" height="20">
<path d="M236.267 135.689H3.97803V154.667H236.267V135.689Z" fill="white"/>
</mask>
<g mask="url(#mask2_765_300)">
<path d="M39.5777 135.689C31.9555 135.689 27.1333 139.378 27.1333 145.245C27.1333 151.022 31.9555 154.645 39.5777 154.645C47.2 154.645 51.9777 151 51.9777 145.245C51.9777 139.356 47.2 135.689 39.5777 135.689ZM39.5777 149.978C35.6 149.978 33.0889 148.156 33.0889 145.245C33.0889 142.245 35.6 140.356 39.5777 140.356C43.5333 140.356 46.0222 142.245 46.0222 145.245C46.0222 148.178 43.5111 149.978 39.5777 149.978Z" fill="#1568F6"/>
</g>
<mask id="mask3_765_300" style="mask-type:luminance" maskUnits="userSpaceOnUse" x="3" y="135" width="234" height="20">
<path d="M236.267 135.689H3.97803V154.667H236.267V135.689Z" fill="white"/>
</mask>
<g mask="url(#mask3_765_300)">
<path d="M3.97803 146.689C3.97803 152.222 7.00025 154.667 14.0002 154.667C20.9114 154.667 24.3336 152.156 24.3336 147.067V136.067H13.3114V140.356H23.1114V141.111L18.5114 141.956V147C18.5114 149.089 17.2225 150 14.2225 150C11.1558 150 9.77803 149.022 9.77803 146.689H3.97803Z" fill="#1568F6"/>
</g>
<mask id="mask4_765_300" style="mask-type:luminance" maskUnits="userSpaceOnUse" x="3" y="135" width="234" height="20">
<path d="M236.267 135.689H3.97803V154.667H236.267V135.689Z" fill="white"/>
</mask>
<g mask="url(#mask4_765_300)">
<path d="M188.067 140.356H195.956V154.267H201.756V140.356H209.667V136.067H188.067V140.356Z" fill="#1568F6"/>
</g>
<mask id="mask5_765_300" style="mask-type:luminance" maskUnits="userSpaceOnUse" x="3" y="135" width="234" height="20">
<path d="M236.267 135.689H3.97803V154.667H236.267V135.689Z" fill="white"/>
</mask>
<g mask="url(#mask5_765_300)">
<path d="M162.555 154.267H168.355V146.8C168.355 142.845 170.666 140.356 174.311 140.356C177.644 140.356 179.777 142.778 179.777 146.622V154.289H185.577V145.4C185.577 139.445 182.089 135.689 176.533 135.689C172.177 135.689 169.511 137.556 168.444 141.356H167.422L168.289 136.089H162.511L162.555 154.267Z" fill="#1568F6"/>
</g>
<mask id="mask6_765_300" style="mask-type:luminance" maskUnits="userSpaceOnUse" x="3" y="135" width="234" height="20">
<path d="M236.267 135.689H3.97803V154.667H236.267V135.689Z" fill="white"/>
</mask>
<g mask="url(#mask6_765_300)">
<path d="M135.733 144.4C135.733 150.689 140.088 154.644 147.044 154.644C153.844 154.644 158.133 150.689 158.133 144.4V136.044H152.755V144.956C152.755 148.022 150.555 149.956 147.066 149.956C143.688 149.956 141.555 148.022 141.555 144.956V136.044H135.755V144.4H135.733Z" fill="#1568F6"/>
</g>
<mask id="mask7_765_300" style="mask-type:luminance" maskUnits="userSpaceOnUse" x="3" y="135" width="234" height="20">
<path d="M236.267 135.689H3.97803V154.667H236.267V135.689Z" fill="white"/>
</mask>
<g mask="url(#mask7_765_300)">
<path d="M111.4 146.689C111.4 152.222 114.444 154.667 121.422 154.667C128.333 154.667 131.755 152.156 131.755 147.067V136.067H120.755V140.356H130.555V141.111L125.955 141.956V147C125.955 149.089 124.667 150 121.667 150C118.6 150 117.222 149.022 117.222 146.689H111.4Z" fill="#1568F6"/>
</g>
<mask id="mask8_765_300" style="mask-type:luminance" maskUnits="userSpaceOnUse" x="3" y="135" width="234" height="20">
<path d="M236.267 135.689H3.97803V154.667H236.267V135.689Z" fill="white"/>
</mask>
<g mask="url(#mask8_765_300)">
<path d="M223.844 135.689C216.222 135.689 211.4 139.378 211.4 145.245C211.4 151.022 216.222 154.645 223.844 154.645C231.467 154.645 236.244 151 236.244 145.245C236.267 139.356 231.489 135.689 223.844 135.689ZM223.844 149.978C219.867 149.978 217.355 148.156 217.355 145.245C217.355 142.245 219.867 140.356 223.844 140.356C227.8 140.356 230.289 142.245 230.289 145.245C230.289 148.178 227.8 149.978 223.844 149.978Z" fill="#1568F6"/>
</g>
<path d="M110.934 105.133C116.934 105.133 119.223 106.8 119.223 111.756C119.223 117.178 117.156 119.133 110.867 119.133H101.556C101.623 117.178 101.623 115.111 101.623 112.156C101.623 109.178 101.601 107 101.556 105.133H110.934ZM113.356 111.911C113.356 109.333 112.445 108.756 110.356 108.756C109.334 108.756 108.378 108.778 107.423 108.822C107.401 109.911 107.378 111.089 107.378 112.178C107.378 113.444 107.378 114.4 107.401 115.178C108.401 115.267 109.223 115.244 110.334 115.244C112.378 115.244 113.356 114.578 113.356 111.911Z" fill="#002151"/>
<path d="M129.645 119.511C122.8 119.511 120.045 116.889 120.045 111.933C120.045 106.955 123.134 104.755 129.667 104.755C136.178 104.755 139.378 106.933 139.378 111.933C139.378 116.866 136.512 119.511 129.645 119.511ZM133.289 111.955C133.289 109.666 132.245 108.622 129.667 108.622C127.112 108.622 126.045 109.622 126.045 111.955C126.045 114.289 127.089 115.4 129.667 115.4C132.267 115.422 133.289 114.266 133.289 111.955Z" fill="#002151"/>
<path d="M52.6222 84.0224C53.7778 83.4446 54.8222 83.0002 55.6889 82.7113C59.8667 81.3113 62.0667 82.5779 63.9111 85.9335C66.6889 91.0446 64.8444 94.0224 56.9333 98.3335L31.0222 112.445C29.1333 108.667 27.1778 104.911 24.2222 99.4446C21.2444 93.9779 19.1556 90.3113 17 86.6668L42.4444 72.8224C48.8444 69.3335 53.8444 68.2668 56.8889 73.8224C58.7111 77.1557 58.4667 79.0668 55.1556 81.9335C54.4667 82.5335 53.5556 83.1557 52.4889 83.8224L52.6222 84.0224ZM40.8444 83.9335C39.8889 82.1779 39.0444 82.0224 37.9111 82.6446C37.5778 82.8224 37.2222 83.0224 36.8444 83.2224C37.5111 84.5557 38.4222 86.2002 39.4 88.0224C39.7778 87.8224 40.1111 87.6224 40.4667 87.4446C41.6 86.7113 41.8667 85.7779 40.8444 83.9335ZM45.8667 93.1335C44.8889 91.3557 44 91.1113 42.8667 91.7335C42.5333 91.9113 42.1556 92.1557 41.7778 92.3557C42.7111 94.0668 43.6 95.6446 44.3556 97.0002C44.7333 96.8002 45.0667 96.6002 45.3778 96.4446C46.5778 95.7779 46.8222 94.889 45.8667 93.1335Z" fill="#002151"/>
<path d="M87.9781 89.5777C70.7558 92.9999 65.5781 89.4888 63.3336 78.1332C61.1114 66.9777 65.9336 62.9332 82.1336 59.7332C98.2447 56.5332 104.667 58.3332 106.889 69.4888C109.134 80.8221 105.245 86.1332 87.9781 89.5777ZM86.467 73.3554C85.7114 69.5554 85.1781 68.8665 83.9781 69.111C82.8225 69.3332 82.5558 70.1999 83.3114 73.9777C84.1336 78.1554 84.7558 79.0665 85.9114 78.8443C87.1114 78.6221 87.2892 77.5332 86.467 73.3554Z" fill="#002151"/>
<path d="M130.578 72.1555C132.533 72.0889 134.733 72.0444 137.022 71.9777C137 74.2 137.022 76.4666 137.045 78.7111C137.067 80.9333 137.089 83.2 137.156 85.4444L109.978 85.6889C110.045 83.4889 110.133 77.2889 110.067 71.0222C110 64.8 109.911 59.1777 109.689 56.3555L130.645 56.1555C130.556 58.2222 130.578 65.1111 130.556 71.2444L130.578 72.1555Z" fill="#002151"/>
<path d="M158.489 88.8445C158.8 87.6001 159.178 85.9112 159.578 83.9556L158.111 83.6667L156.334 83.3334C155.956 85.3334 155.711 87.0445 155.578 88.289L136.111 84.5556C139.267 77.6445 145.511 60.2001 146.4 56.6667L180.245 63.1556C179.911 66.9112 179.467 85.4667 179.956 92.9556L158.489 88.8445ZM151.467 56.2001C152 50.0889 155.422 48.4445 159.222 49.1556C164.289 50.1334 167.089 53.5778 170.756 54.2667C172.222 54.5556 173.089 53.9556 173.422 52.2001C174.489 52.4001 176.378 52.8001 177.645 53.0001C177.111 59.6445 173.356 60.6667 169.778 60.0001C164.245 58.9334 161.178 55.4001 158.489 54.889C157.156 54.6223 156.222 55.089 155.734 57.0223C154.667 56.8223 152.8 56.3778 151.467 56.2001ZM159.511 76.5778L160.778 76.8223C161.111 74.489 161.356 72.1112 161.445 69.7778C161.489 68.3112 161.6 66.4223 161.689 64.8001L161.422 64.7556C160.934 66.289 160.334 68.089 159.889 69.4667C159.156 71.6667 158.467 73.9778 157.911 76.2445L159.511 76.5778Z" fill="#002151"/>
<path d="M196.867 102.511C181.356 94.2668 179.578 88.2669 185.022 78.0446C190.356 68.0002 196.644 67.9335 211.222 75.6668C225.733 83.378 229.556 88.8224 224.222 98.8668C218.778 109.111 212.4 110.756 196.867 102.511ZM205.956 89.0002C207.778 85.578 207.8 84.7113 206.733 84.1335C205.689 83.578 204.956 84.0669 203.133 87.4891C201.133 91.2446 201.044 92.3557 202.067 92.9113C203.133 93.4669 203.956 92.7557 205.956 89.0002Z" fill="#002151"/>
</g>
<defs>
<clipPath id="clip0_765_300">
<rect width="240" height="240" fill="white"/>
</clipPath>
</defs>
</svg>
