<svg width="28" height="27" viewBox="0 0 28 27" fill="none" xmlns="http://www.w3.org/2000/svg">
<path d="M20.1211 5.76C19.162 4.7195 18.6334 3.38324 18.6338 2H14.2984V18.5333C14.2649 19.428 13.8674 20.2755 13.1896 20.8973C12.5118 21.519 11.6065 21.8665 10.6644 21.8667C8.67209 21.8667 7.01648 20.32 7.01648 18.4C7.01648 16.1067 9.34556 14.3867 11.7448 15.0933V10.88C6.90424 10.2667 2.66699 13.84 2.66699 18.4C2.66699 22.84 6.53944 26 10.6504 26C15.056 26 18.6338 22.6 18.6338 18.4V10.0133C20.3919 11.2131 22.5026 11.8569 24.667 11.8533V7.73333C24.667 7.73333 22.0292 7.85333 20.1211 5.76Z" fill="white"/>
</svg>
