<svg width="32" height="32" viewBox="0 0 32 32" fill="none" xmlns="http://www.w3.org/2000/svg">
<g id="material-symbols:trophy-outline">
<path id="Vector" d="M9.33333 28V25.3333H14.6667V21.2C13.5778 20.9556 12.6053 20.4942 11.7493 19.816C10.8933 19.1378 10.2658 18.288 9.86667 17.2667C8.2 17.0667 6.80533 16.3391 5.68267 15.084C4.56 13.8289 3.99911 12.3564 4 10.6667V9.33333C4 8.6 4.26133 7.972 4.784 7.44933C5.30667 6.92667 5.93422 6.66578 6.66667 6.66667H9.33333V4H22.6667V6.66667H25.3333C26.0667 6.66667 26.6947 6.928 27.2173 7.45067C27.74 7.97333 28.0009 8.60089 28 9.33333V10.6667C28 12.3556 27.4387 13.828 26.316 15.084C25.1933 16.34 23.7991 17.0676 22.1333 17.2667C21.7333 18.2889 21.1053 19.1391 20.2493 19.8173C19.3933 20.4956 18.4213 20.9564 17.3333 21.2V25.3333H22.6667V28H9.33333ZM9.33333 14.4V9.33333H6.66667V10.6667C6.66667 11.5111 6.91111 12.2724 7.4 12.9507C7.88889 13.6289 8.53333 14.112 9.33333 14.4ZM16 18.6667C17.1111 18.6667 18.0556 18.2778 18.8333 17.5C19.6111 16.7222 20 15.7778 20 14.6667V6.66667H12V14.6667C12 15.7778 12.3889 16.7222 13.1667 17.5C13.9444 18.2778 14.8889 18.6667 16 18.6667ZM22.6667 14.4C23.4667 14.1111 24.1111 13.6276 24.6 12.9493C25.0889 12.2711 25.3333 11.5102 25.3333 10.6667V9.33333H22.6667V14.4Z" fill="#002151"/>
</g>
</svg>
