<svg width="27" height="27" viewBox="0 0 27 27" fill="none" xmlns="http://www.w3.org/2000/svg">
<path d="M25.2674 6.75C24.4012 7.14375 23.4674 7.4025 22.4999 7.52625C23.4899 6.93 24.2549 5.985 24.6149 4.84875C23.6812 5.41125 22.6462 5.805 21.5549 6.03C20.6662 5.0625 19.4174 4.5 17.9999 4.5C15.3562 4.5 13.1962 6.66 13.1962 9.32625C13.1962 9.70875 13.2412 10.08 13.3199 10.4288C9.31492 10.2263 5.74867 8.3025 3.37492 5.38875C2.95867 6.0975 2.72242 6.93 2.72242 7.8075C2.72242 9.48375 3.56617 10.9688 4.87117 11.8125C4.07242 11.8125 3.32992 11.5875 2.67742 11.25V11.2837C2.67742 13.6237 4.34242 15.5813 6.54742 16.02C5.83949 16.2137 5.09628 16.2407 4.37617 16.0988C4.68173 17.0578 5.28015 17.897 6.08732 18.4983C6.89448 19.0996 7.8698 19.4329 8.87617 19.4513C7.17026 20.8017 5.05567 21.5317 2.87992 21.5212C2.49742 21.5212 2.11492 21.4987 1.73242 21.4538C3.86992 22.8263 6.41242 23.625 9.13492 23.625C17.9999 23.625 22.8712 16.2675 22.8712 9.88875C22.8712 9.675 22.8712 9.4725 22.8599 9.25875C23.8049 8.58375 24.6149 7.72875 25.2674 6.75Z" fill="white"/>
</svg>
